<?xml version="1.0" encoding="utf-8"?>
<!-- Generator: Adobe Illustrator 18.0.0, SVG Export Plug-In . SVG Version: 6.00 Build 0)  -->
<!DOCTYPE svg PUBLIC "-//W3C//DTD SVG 1.1//EN" "http://www.w3.org/Graphics/SVG/1.1/DTD/svg11.dtd">
<svg version="1.1" id="Слой_1" xmlns="http://www.w3.org/2000/svg" xmlns:xlink="http://www.w3.org/1999/xlink" x="0px" y="0px"
	 viewBox="0 0 164.4 124.7" enable-background="new 0 0 164.4 124.7" xml:space="preserve">
<g>
	<g>
		<path fill="#349144" d="M1.2,102.4V81H5v15.2L16.2,81h3.3v21.4h-3.8V87.2L4.5,102.4H1.2z"/>
		<path fill="#349144" d="M38.9,93.3h-9.8v9.1h-3.8V81h3.8v8.7h9.8V81h3.7v21.4h-3.7V93.3z"/>
		<path fill="#349144" d="M48.5,81.1c1.2-0.1,4-0.2,6.2-0.2c5.1,0,7,2.3,7,5.3c0,2.4-1.2,4-3.1,4.9v0.1c2.1,0.5,3.8,2.1,3.8,5
			c0,4.4-3.4,6.4-7.9,6.4c-2,0-4.7-0.1-6-0.2V81.1z M52.3,84.5v5.4h2.5c1.7,0,3.2-0.9,3.2-2.8c0-1.7-1.3-2.7-3.4-2.7
			C53.8,84.4,53,84.5,52.3,84.5z M52.3,93.2v5.6c0.5,0.1,1.4,0.2,2.5,0.2c2.5,0,3.9-1.1,3.9-3.1c0-1.8-1.4-2.7-3.7-2.7H52.3z"/>
		<path fill="#349144" d="M67.4,81h12.4v3.5h-8.6v5.3h7.7v3.5h-7.7v5.5H80v3.5H67.4V81z"/>
		<path fill="#349144" d="M101.2,100.3c-1.3,1.4-4.1,2.4-6.8,2.4c-6.5,0-11-4.4-11-11c0-6.1,3.9-11,10.9-11c2.8,0,5.1,0.9,6.5,2.2
			l-1.7,2.8c-1.3-0.9-2.7-1.4-4.8-1.4c-4,0-7,2.9-7,7.5c0,4.5,3,7.5,7.4,7.5c1.8,0,3.6-0.6,5.1-1.7L101.2,100.3z"/>
		<path fill="#349144" d="M102.3,81h17.6v3.5h-6.9v17.9h-3.8V84.5h-6.9V81z"/>
		<path fill="#349144" d="M131.7,80.7c6.3,0,11.1,4.4,11.1,11c0,6.4-4.8,11-11.1,11s-11.1-4.4-11.1-11
			C120.6,85.5,125.1,80.7,131.7,80.7z M131.7,99.2c4.5,0,7.2-3.3,7.2-7.5c0-4.4-3.1-7.5-7.2-7.5c-4.1,0-7.1,3.1-7.1,7.5
			C124.5,96,127.7,99.2,131.7,99.2z"/>
		<path fill="#349144" d="M147.2,102.4V81c1.2,0,4.6-0.1,6.1-0.1c6.3,0,8.3,3.4,8.3,6.9c0,3.6-2.7,6.9-7.8,6.9c-0.6,0-1.9,0-2.8-0.1
			v7.7H147.2z M150.9,84.5v6.6c0.9,0.1,1.8,0.2,2.7,0.2c2.2,0,4-1.1,4-3.4c0-2.2-1.4-3.3-3.9-3.3C152.8,84.5,151.9,84.5,150.9,84.5z
			"/>
	</g>
	<g>
		<path fill="#339144" d="M0.7,113.4h7.4v1H5v7.9H3.9v-7.9H0.7V113.4z"/>
		<path fill="#339144" d="M12.9,113.2c2.6,0,4.6,1.9,4.6,4.6c0,2.7-2,4.6-4.6,4.6s-4.6-1.9-4.6-4.6C8.3,115.2,10.2,113.2,12.9,113.2
			z M12.9,121.4c2,0,3.4-1.6,3.4-3.6c0-2.1-1.5-3.6-3.4-3.6c-1.9,0-3.4,1.5-3.4,3.6C9.4,119.9,10.9,121.4,12.9,121.4z"/>
		<path fill="#339144" d="M19.2,113.4c0.5,0,1.6-0.1,2.5-0.1c2.1,0,2.9,1,2.9,2.2c0,1.1-0.7,1.8-1.5,2.1v0c1.1,0.2,1.9,0.9,1.9,2.1
			c0,1.8-1.4,2.6-3.3,2.6c-0.8,0-1.9,0-2.4-0.1V113.4z M20.3,114.4v2.9h1.4c0.9,0,1.7-0.5,1.7-1.5c0-0.9-0.6-1.4-1.8-1.4
			C21.2,114.3,20.7,114.4,20.3,114.4z M20.3,118.2v3c0.3,0,0.9,0.1,1.4,0.1c1.3,0,2.1-0.5,2.1-1.6c0-0.9-0.7-1.5-2-1.5H20.3z"/>
		<path fill="#339144" d="M29.7,113.3h0.9l3.9,9h-1.2l-1.2-2.7h-4.1l-1.1,2.7h-1.1L29.7,113.3z M28.5,118.6h3.2l-1.6-3.8L28.5,118.6
			z"/>
		<path fill="#339144" d="M35.8,122.3v-9c0.5,0,1.8,0,2.3,0c2.6,0,3.3,1.4,3.3,2.8c0,1.5-1,2.8-3.2,2.8c-0.4,0-0.9,0-1.3-0.1v3.4
			H35.8z M36.9,114.4v3.5c0.4,0,0.9,0.1,1.3,0.1c1.3,0,2.1-0.7,2.1-1.8c0-1.1-0.6-1.7-2.1-1.7C37.9,114.4,37.3,114.4,36.9,114.4z"/>
		<path fill="#339144" d="M43.3,122.3v-9h1.1v7.2l5.4-7.2h1v9h-1.1v-7.2l-5.4,7.2H43.3z"/>
		<path fill="#339144" d="M53.3,113.4h1.1v7.9h3.4v-7.9h1.1v7.9h3.4v-7.9h1.1v7.9h1.2v2.7h-1v-1.7H53.3V113.4z"/>
		<path fill="#339144" d="M66.1,113.4h5.1v1h-4v2.9h3.6v1h-3.6v3h4.1v1h-5.2V113.4z"/>
		<path fill="#339144" d="M80,121.5c-0.6,0.6-1.7,1-2.8,1c-2.7,0-4.5-1.8-4.5-4.6c0-2.6,1.7-4.6,4.5-4.6c1.2,0,2.1,0.3,2.7,0.9
			l-0.5,0.8c-0.6-0.4-1.3-0.7-2.2-0.7c-1.9,0-3.3,1.5-3.3,3.6c0,2.1,1.4,3.6,3.5,3.6c0.9,0,1.7-0.3,2.3-0.8L80,121.5z"/>
		<path fill="#339144" d="M80.3,113.4h7.4v1h-3.1v7.9h-1.1v-7.9h-3.1V113.4z"/>
		<path fill="#339144" d="M89,113.4c0.5,0,1.6-0.1,2.5-0.1c2.1,0,2.9,1,2.9,2.2c0,1.1-0.7,1.8-1.5,2.1v0c1.1,0.2,1.9,0.9,1.9,2.1
			c0,1.8-1.4,2.6-3.3,2.6c-0.8,0-1.9,0-2.4-0.1V113.4z M90.1,114.4v2.9h1.4c0.9,0,1.7-0.5,1.7-1.5c0-0.9-0.6-1.4-1.8-1.4
			C91,114.3,90.4,114.4,90.1,114.4z M90.1,118.2v3c0.3,0,0.9,0.1,1.4,0.1c1.3,0,2.1-0.5,2.1-1.6c0-0.9-0.7-1.5-2-1.5H90.1z"/>
		<path fill="#339144" d="M100.6,113.2c2.6,0,4.6,1.9,4.6,4.6c0,2.7-2,4.6-4.6,4.6c-2.6,0-4.6-1.9-4.6-4.6
			C96,115.2,97.9,113.2,100.6,113.2z M100.6,121.4c2,0,3.4-1.6,3.4-3.6c0-2.1-1.5-3.6-3.4-3.6c-1.9,0-3.4,1.5-3.4,3.6
			C97.2,119.9,98.7,121.4,100.6,121.4z"/>
		<path fill="#339144" d="M115.7,118.3h-4.9v4.1h-1.1v-9h1.1v3.9h4.9v-3.9h1.1v9h-1.1V118.3z"/>
		<path fill="#339144" d="M122,113.3h0.9l3.9,9h-1.2l-1.2-2.7h-4.1l-1.1,2.7h-1.1L122,113.3z M120.9,118.6h3.2l-1.6-3.8L120.9,118.6
			z"/>
		<path fill="#339144" d="M130.9,113.4c0.5,0,1.6-0.1,2.5-0.1c2.1,0,2.9,1,2.9,2.2c0,1.1-0.7,1.8-1.5,2.1v0c1.1,0.2,1.9,0.9,1.9,2.1
			c0,1.8-1.4,2.6-3.3,2.6c-0.8,0-1.9,0-2.4-0.1V113.4z M132,114.4v2.9h1.4c0.9,0,1.7-0.5,1.7-1.5c0-0.9-0.6-1.4-1.8-1.4
			C132.9,114.3,132.3,114.4,132,114.4z M132,118.2v3c0.3,0,0.9,0.1,1.4,0.1c1.3,0,2.1-0.5,2.1-1.6c0-0.9-0.7-1.5-2-1.5H132z"/>
		<path fill="#339144" d="M138.6,113.4h5.1v1h-4v2.9h3.6v1h-3.6v3h4.1v1h-5.2V113.4z"/>
		<path fill="#339144" d="M145.8,122.3v-9c0.5,0,1.8,0,2.3,0c2.6,0,3.3,1.4,3.3,2.8c0,1.5-1,2.8-3.2,2.8c-0.4,0-0.9,0-1.3-0.1v3.4
			H145.8z M146.9,114.4v3.5c0.4,0,0.9,0.1,1.3,0.1c1.3,0,2.1-0.7,2.1-1.8c0-1.1-0.6-1.7-2.1-1.7
			C147.9,114.4,147.3,114.4,146.9,114.4z"/>
		<path fill="#339144" d="M153.3,113.4h5.1v1h-4v2.9h3.6v1h-3.6v3h4.1v1h-5.2V113.4z"/>
	</g>
	<g>
		<path fill="#339144" d="M59.7,59.8h1.5l2.8,3.9l2.7-3.9H68v8.3h-1.4v-6L64,65.8h-0.2l-2.6-3.6v5.9h-1.5V59.8z"/>
		<path fill="#339144" d="M70.2,68.1v-8.3h1.5v5.9l4.3-5.9h1.3v8.3h-1.5v-5.9l-4.3,5.9H70.2z"/>
		<path fill="#339144" d="M79.4,59.8h1.5v3.9l3.3-3.9h1.7l-3.4,3.9l3.6,4.4h-1.8l-3.4-4.3v4.3h-1.5V59.8z"/>
		<path fill="#339144" d="M87.2,68.1v-8.3c0.5,0,1.8,0,2.4,0c2.4,0,3.2,1.3,3.2,2.7c0,1.4-1.1,2.7-3,2.7c-0.2,0-0.7,0-1.1,0v3H87.2z
			 M88.6,61.1v2.5c0.3,0,0.7,0.1,1,0.1c0.9,0,1.5-0.4,1.5-1.3c0-0.9-0.5-1.3-1.5-1.3C89.4,61.1,89,61.1,88.6,61.1z"/>
		<path fill="#339144" d="M97.9,59.7c2.5,0,4.3,1.7,4.3,4.3c0,2.5-1.9,4.3-4.3,4.3c-2.5,0-4.3-1.7-4.3-4.3
			C93.6,61.5,95.3,59.7,97.9,59.7z M97.9,66.8c1.7,0,2.8-1.3,2.8-2.9c0-1.7-1.2-2.9-2.8-2.9c-1.6,0-2.8,1.2-2.8,2.9
			C95.1,65.6,96.3,66.8,97.9,66.8z"/>
	</g>
	<rect x="0.5" y="107.1" fill="#6BBD4D" width="160.1" height="2.3"/>
	<g>
		<g>
			<path fill="#349144" d="M58.4,29.8c0,0-7.6,9.8-3.6,13.1c0,0,1.5,0.7,4.7,0.4c10.5-1.5,36.7-20.7,45.8-28.7l-1.5-4l14.2,2.2
				l-4.7,14.2l-2.9-4c0,0-26.9,21.8-48.4,26.9c0,0-25.5,5.1-4-20H58.4z"/>
			<path fill="#349144" d="M60.2,21.1h11.3v15.3c-3.3,2.2-7.3,3.6-11.3,5.1V21.1z"/>
			<polygon fill="#349144" points="75.1,10.5 86.4,10.5 86.4,26.9 75.1,34.5 			"/>
			<polygon fill="#349144" points="90,0 101.3,0 101.3,15.6 90,24.4 			"/>
			<polygon fill="#6BBD4D" points="100.9,53.8 89.7,53.8 89.7,39.3 100.9,32 			"/>
			<polygon fill="#6BBD4D" points="86.4,53.8 75.1,53.8 75.1,46.9 86.4,41.1 			"/>
		</g>
		<path fill="#6BBD4D" d="M71.5,53.8H60.2v-2.2c2.5,0,8-1.8,11.3-3.3V53.8z"/>
	</g>
	<rect x="0.5" y="73.7" fill="#6BBD4D" width="160.1" height="2.3"/>
</g>
</svg>
